<svg viewBox="0 0 800 1000" xmlns="http://www.w3.org/2000/svg" width="800" height="1000">
<rect x="0" y="0" width="800" height="1000" fill="#0B0F17"/>
<rect x="0" y="0" width="800" height="8" fill="#F4C430"/>
<text x="60" y="92" fill="#8B949E" font-family="Arial, sans-serif" font-size="24">What the screenshot doesn't show</text>
<text x="60" y="158" fill="#E6EDF3" font-family="Arial, sans-serif" font-size="44" font-weight="bold">GLW 0DTE: <tspan fill="#26D07C">+1,400%</tspan></text>
<text x="60" y="206" fill="#E6EDF3" font-family="Arial, sans-serif" font-size="27">The 9/21 EMA "ride" that caught it</text>
<text x="60" y="242" fill="#F85149" font-family="Arial, sans-serif" font-size="27" font-weight="bold">lost money 13 of 14 days.</text>
<text x="60" y="318" fill="#6E7681" font-family="Arial, sans-serif" font-size="22">Daily P&amp;L of the EMA-ride rule</text>
<line x1="60" y1="592" x2="740" y2="592" stroke="#30363D" stroke-width="2"/>
<rect x="92" y="575" width="30" height="17" fill="#F85149"/>
<rect x="139" y="487" width="30" height="105" fill="#26D07C"/>
<rect x="186" y="592" width="30" height="130" fill="#F85149"/>
<rect x="233" y="529" width="30" height="63" fill="#26D07C"/>
<rect x="280" y="592" width="30" height="8" fill="#F85149"/>
<rect x="327" y="592" width="30" height="4" fill="#F85149"/>
<rect x="374" y="592" width="30" height="42" fill="#F85149"/>
<rect x="421" y="592" width="30" height="55" fill="#F85149"/>
<rect x="468" y="592" width="30" height="34" fill="#F85149"/>
<rect x="515" y="558" width="30" height="34" fill="#26D07C"/>
<rect x="562" y="592" width="30" height="21" fill="#F85149"/>
<rect x="609" y="592" width="30" height="34" fill="#F85149"/>
<rect x="656" y="592" width="30" height="122" fill="#F85149"/>
<rect x="703" y="374" width="30" height="218" fill="#26D07C"/>
<text x="718" y="360" fill="#26D07C" font-family="Arial, sans-serif" font-size="24" font-weight="bold" text-anchor="middle">+5.2%</text>
<text x="718" y="754" fill="#8B949E" font-family="Arial, sans-serif" font-size="20" text-anchor="middle">Jun 18</text>
<text x="107" y="754" fill="#8B949E" font-family="Arial, sans-serif" font-size="20" text-anchor="middle">Jun 1</text>
<line x1="60" y1="800" x2="740" y2="800" stroke="#21262D" stroke-width="2"/>
<text x="60" y="858" fill="#E6EDF3" font-family="Arial, sans-serif" font-size="27" font-weight="bold">24% win rate · profit factor 0.93 · net loser</text>
<text x="60" y="906" fill="#8B949E" font-family="Arial, sans-serif" font-size="24">One green day was 34% of all profit.</text>
<text x="60" y="942" fill="#8B949E" font-family="Arial, sans-serif" font-size="24">A trending stock rides its EMA by definition.</text>
</svg>
